HIERARCHY
ROOT Hips
{
	OFFSET 0.000000 0.000000 0.000000
	CHANNELS 6 Xposition Yposition Zposition Yrotation Xrotation Zrotation
	JOINT Chest
	{
		OFFSET 0.000000 -0.009281 11.569106
		CHANNELS 3 Yrotation Xrotation Zrotation
		JOINT Chest2
		{
			OFFSET -0.000000 0.016865 9.269641
			CHANNELS 3 Yrotation Xrotation Zrotation
			JOINT Chest3
			{
				OFFSET -0.000000 0.000001 8.374491
				CHANNELS 3 Yrotation Xrotation Zrotation
				JOINT Chest4
				{
					OFFSET -0.000000 0.000001 8.374493
					CHANNELS 3 Yrotation Xrotation Zrotation
					JOINT Neck
					{
						OFFSET -0.000000 0.000002 12.152554
						CHANNELS 3 Yrotation Xrotation Zrotation
						JOINT Head
						{
							OFFSET -0.000000 0.040101 7.802319
							CHANNELS 3 Yrotation Xrotation Zrotation
							End Site
							{
								OFFSET -0.000000 0.020947 14.853096
							}
						}
					}
					JOINT RightCollar
					{
						OFFSET 2.894404 0.000001 6.791374
						CHANNELS 3 Yrotation Xrotation Zrotation
						JOINT RightShoulder
						{
							OFFSET 13.574684 0.000001 0.000000
							CHANNELS 3 Yrotation Xrotation Zrotation
							JOINT RightElbow
							{
								OFFSET 23.923903 0.000002 0.000000
								CHANNELS 3 Yrotation Xrotation Zrotation
								JOINT RightWrist
								{
									OFFSET 19.846718 0.012767 0.000000
									CHANNELS 3 Yrotation Xrotation Zrotation
									End Site
									{
										OFFSET 14.973145 0.000001 0.000000
									}
								}
							}
						}
					}
					JOINT LeftCollar
					{
						OFFSET -2.894404 0.000001 6.791374
						CHANNELS 3 Yrotation Xrotation Zrotation
						JOINT LeftShoulder
						{
							OFFSET -13.574684 -0.000001 0.000000
							CHANNELS 3 Yrotation Xrotation Zrotation
							JOINT LeftElbow
							{
								OFFSET -23.923903 -0.000002 0.000000
								CHANNELS 3 Yrotation Xrotation Zrotation
								JOINT LeftWrist
								{
									OFFSET -19.846718 0.012763 0.000000
									CHANNELS 3 Yrotation Xrotation Zrotation
									End Site
									{
										OFFSET -14.973145 -0.000001 0.000000
									}
								}
							}
						}
					}
				}
			}
		}
	}
	JOINT RightHip
	{
		OFFSET 9.469263 0.004643 0.045487
		CHANNELS 3 Yrotation Xrotation Zrotation
		JOINT RightKnee
		{
			OFFSET 0.000000 0.002661 -40.478676
			CHANNELS 3 Yrotation Xrotation Zrotation
			JOINT RightAnkle
			{
				OFFSET 0.000000 0.049106 -35.224068
				CHANNELS 3 Yrotation Xrotation Zrotation
				JOINT RightToe
				{
					OFFSET -0.000001 12.539529 -6.151390
					CHANNELS 3 Yrotation Xrotation Zrotation
					End Site
					{
						OFFSET -0.000001 5.044994 -1.291870
					}
				}
			}
		}
	}
	JOINT LeftHip
	{
		OFFSET -9.469263 0.004641 0.045487
		CHANNELS 3 Yrotation Xrotation Zrotation
		JOINT LeftKnee
		{
			OFFSET 0.000000 0.002661 -40.478676
			CHANNELS 3 Yrotation Xrotation Zrotation
			JOINT LeftAnkle
			{
				OFFSET 0.000000 0.049106 -35.224068
				CHANNELS 3 Yrotation Xrotation Zrotation
				JOINT LeftToe
				{
					OFFSET -0.000001 12.539529 -6.151390
					CHANNELS 3 Yrotation Xrotation Zrotation
					End Site
					{
						OFFSET -0.000001 5.044994 -1.291870
					}
				}
			}
		}
	}
}
MOTION
Frames: 14
Frame Time: 0.016667
9.957211 4.301773 82.840050 -9.365928 -3.068311 -109.456992 0.358378 -7.174560 1.709440 0.200864 -3.184279 0.727648 0.200863 -3.184278 0.727649 0.154404 -2.387974 0.546644 4.355528 -24.728343 -0.881633 7.587835 -9.783905 -0.516892 0.859724 -1.678937 0.826400 55.926815 -33.502645 51.750981 -12.772083 -39.811066 6.235292 -46.312463 25.460292 59.982749 -11.288894 -3.168385 -10.581686 -61.583670 -9.548980 -34.250841 -0.074452 -20.881242 -6.042444 57.745636 -2.473798 -70.924070 -1.335141 -9.268896 -1.782639 1.979788 -8.538724 -3.441924 -0.689351 7.864174 2.739419 -0.041824 0.003376 0.021605 -0.508325 -10.435598 -1.168774 0.700953 -5.815362 2.923304 -0.398169 6.601986 -2.020120 -0.043391 -0.097580 -0.017235 
9.948970 4.309997 82.836189 -9.362970 -3.137264 -109.627862 0.364565 -7.179154 1.603818 0.201755 -3.185542 0.682621 0.201755 -3.185542 0.682623 0.154839 -2.388935 0.512886 4.378538 -24.731862 -1.193056 7.552758 -9.774667 -1.068817 0.814445 -1.651073 0.926559 55.979749 -33.224198 51.169499 -12.474205 -39.634481 5.176814 -46.302139 25.404069 59.980297 -11.365271 -3.173647 -10.519462 -62.016526 -9.947610 -34.427855 -0.369188 -20.380004 -6.069124 57.741886 -2.348237 -69.844763 -1.296581 -9.256868 -1.717507 1.953204 -8.536054 -3.361867 -0.664419 7.832615 2.772361 -0.041905 0.004618 0.024194 -0.484918 -10.449663 -1.088868 0.698415 -5.863688 2.980834 -0.377535 6.656263 -1.973731 -0.048463 -0.103120 -0.017209 
9.944132 4.316131 82.831680 -9.355930 -3.209505 -109.808063 0.368683 -7.180337 1.504001 0.202979 -3.185141 0.640656 0.202979 -3.185141 0.640659 0.155537 -2.388647 0.481428 4.399102 -24.740082 -1.525093 7.508210 -9.773895 -1.658449 0.744813 -1.637323 1.004711 56.075341 -32.952982 50.614396 -12.210586 -39.475806 4.123626 -46.263866 25.312227 60.004332 -11.445749 -3.141395 -10.452895 -62.450715 -10.465077 -34.593969 -0.625401 -19.873438 -6.088213 57.715447 -2.046907 -68.797579 -1.254516 -9.242837 -1.684145 1.922057 -8.536976 -3.245356 -0.641420 7.803522 2.805415 -0.041270 0.005595 0.025507 -0.456948 -10.462757 -1.013259 0.696849 -5.916148 3.064488 -0.362302 6.716164 -1.945347 -0.053180 -0.108137 -0.018474 
9.938931 4.320243 82.826927 -9.342136 -3.284201 -110.001433 0.361869 -7.164870 1.420639 0.199475 -3.178164 0.605468 0.199475 -3.178164 0.605469 0.152719 -2.383428 0.455025 4.439445 -24.763075 -1.887276 7.491734 -9.800464 -2.297933 0.699789 -1.666473 1.091703 56.109994 -32.741536 50.042832 -12.049449 -39.118993 3.204621 -46.259939 25.264448 59.994415 -11.503412 -3.120194 -10.397775 -62.884145 -11.133283 -34.782650 -0.891593 -19.209868 -6.092771 57.587470 -1.829330 -67.486422 -1.209399 -9.214041 -1.626376 1.892395 -8.553409 -3.134509 -0.621210 7.777268 2.840134 -0.039325 0.009093 0.026627 -0.421928 -10.469527 -0.924390 0.690087 -5.974198 3.156624 -0.352655 6.781326 -1.953057 -0.053587 -0.112842 -0.020070 
9.931539 4.322739 82.822441 -9.331131 -3.364205 -110.200806 0.358455 -7.136355 1.331934 0.197044 -3.166071 0.567251 0.197044 -3.166071 0.567254 0.150687 -2.374372 0.426352 4.481071 -24.804233 -2.268934 7.473031 -9.860890 -2.972721 0.669984 -1.752602 1.217859 56.134121 -32.445157 49.445775 -11.867269 -38.646815 2.399918 -46.339856 25.270015 59.911680 -11.623286 -3.067090 -10.362378 -63.244765 -11.799911 -34.904715 -1.352409 -18.452403 -6.165852 57.562293 -1.937732 -65.868480 -1.156748 -9.178131 -1.528361 1.861810 -8.588924 -3.054738 -0.601246 7.754647 2.875449 -0.036659 0.015981 0.026887 -0.383876 -10.477712 -0.827090 0.677986 -6.041644 3.249661 -0.342970 6.850814 -1.914654 -0.050214 -0.115102 -0.019958 
9.925643 4.328156 82.819069 -9.329686 -3.443606 -110.404154 0.351326 -7.112693 1.239203 0.192699 -3.155932 0.527103 0.192699 -3.155931 0.527104 0.147212 -2.366785 0.396227 4.516840 -24.845764 -2.665810 7.440473 -9.922434 -3.676077 0.659117 -1.806069 1.291895 56.233374 -32.095472 48.844346 -11.648613 -38.245480 1.650608 -46.471026 25.251008 59.760972 -11.726759 -3.046898 -10.348022 -63.572013 -12.296444 -35.007288 -2.021161 -17.826090 -6.387876 57.508731 -2.086816 -64.147088 -1.109249 -9.147572 -1.423284 1.829140 -8.632519 -2.974272 -0.579613 7.736341 2.898178 -0.033555 0.021596 0.027769 -0.346447 -10.491936 -0.727887 0.662586 -6.114074 3.346481 -0.334976 6.923760 -1.914361 -0.047741 -0.117621 -0.021471 
9.919161 4.332697 82.815666 -9.321472 -3.532260 -110.600816 0.361894 -7.113633 1.120395 0.191792 -3.157444 0.477526 0.191792 -3.157444 0.477526 0.146277 -2.367936 0.359047 4.523278 -24.860886 -3.061247 7.355712 -9.936184 -4.382745 0.634270 -1.767940 1.357185 56.410795 -31.688680 48.231278 -11.428878 -37.998712 0.947217 -46.578321 25.181944 59.602587 -11.808331 -3.003807 -10.324535 -63.884399 -12.712917 -35.118613 -2.766763 -17.396075 -6.679837 57.353249 -1.890880 -62.423742 -1.047598 -9.115944 -1.328657 1.800257 -8.668895 -2.885328 -0.565859 7.714405 2.900421 -0.030538 0.024357 0.026547 -0.303888 -10.508093 -0.641826 0.648726 -6.181257 3.440773 -0.322099 6.984782 -1.884017 -0.044661 -0.107570 -0.021086 
9.915945 4.339761 82.812561 -9.312058 -3.615137 -110.805640 0.380976 -7.132329 0.987554 0.199881 -3.165280 0.420391 0.199881 -3.165280 0.420392 0.152051 -2.373824 0.316250 4.492738 -24.862111 -3.452922 7.205522 -9.925931 -5.091100 0.561097 -1.710230 1.412738 56.536734 -31.302135 47.717286 -11.247567 -37.797533 0.273367 -46.672646 25.036134 59.432235 -11.904733 -2.875075 -10.278790 -64.190227 -13.234088 -35.180897 -3.533801 -16.930253 -7.030451 57.199931 -1.382239 -60.686067 -0.998800 -9.080003 -1.235666 1.772962 -8.717335 -2.790263 -0.549010 7.702102 2.904011 -0.027137 0.026843 0.025667 -0.264381 -10.517430 -0.552050 0.636948 -6.255840 3.528563 -0.315009 7.063602 -1.876190 -0.042185 -0.111581 -0.020889 
9.909964 4.346813 82.811249 -9.297703 -3.694413 -111.022246 0.383899 -7.157589 0.848388 0.200313 -3.177068 0.360215 0.200313 -3.177068 0.360216 0.152070 -2.382684 0.271137 4.460252 -24.866342 -3.835172 7.054262 -9.923434 -5.783237 0.544545 -1.618379 1.509481 56.530037 -30.991778 47.230249 -11.154711 -37.506416 -0.275805 -46.769102 24.854234 59.236899 -11.923061 -2.751346 -10.221543 -64.550212 -13.857056 -35.242984 -4.310847 -16.281528 -7.482646 56.931464 -0.759782 -58.754469 -0.958580 -9.029225 -1.109994 1.753939 -8.774848 -2.713467 -0.532083 7.688141 2.947555 -0.025112 0.030579 0.024025 -0.229395 -10.526025 -0.464727 0.615759 -6.321161 3.618631 -0.297411 7.132752 -1.833574 -0.040112 -0.110356 -0.019809 
9.905087 4.359999 82.811958 -9.288809 -3.779753 -111.260182 0.375066 -7.155868 0.722438 0.195621 -3.177187 0.304681 0.195621 -3.177187 0.304682 0.148263 -2.382794 0.229471 4.442828 -24.903247 -4.224397 6.929387 -9.983036 -6.485382 0.559437 -1.603529 1.605592 56.450458 -30.665036 46.762286 -11.093705 -37.189707 -0.671721 -46.890529 24.718834 59.034937 -11.909850 -2.698422 -10.152558 -64.972905 -14.486691 -35.329362 -5.203317 -15.534005 -7.974730 56.622357 -0.318771 -56.545463 -0.916694 -8.980964 -0.947685 1.735141 -8.837706 -2.653673 -0.509463 7.672571 2.955802 -0.027235 0.036081 0.023690 -0.200345 -10.548798 -0.366718 0.603268 -6.373248 3.727995 -0.284736 7.192639 -1.803829 -0.038741 -0.107314 -0.020299 
9.902893 4.372274 82.812988 -9.284900 -3.866576 -111.520132 0.373890 -7.151830 0.589790 0.192396 -3.175660 0.247250 0.192396 -3.175661 0.247253 0.145546 -2.381667 0.186392 4.421888 -24.945985 -4.609021 6.799990 -10.055368 -7.180230 0.552650 -1.605834 1.717168 56.390759 -30.243705 46.317688 -10.971783 -36.971872 -1.033386 -47.031204 24.604360 58.792793 -11.941682 -2.628878 -10.055697 -65.415782 -15.005335 -35.413872 -6.346735 -14.788411 -8.503564 56.252731 0.186252 -54.113912 -0.881427 -8.938651 -0.789739 1.709272 -8.897017 -2.588558 -0.475484 7.656319 2.997139 -0.030950 0.038292 0.024883 -0.178471 -10.584863 -0.229571 0.590417 -6.420818 3.850108 -0.273230 7.254061 -1.791040 -0.036207 -0.102481 -0.019739 
9.905821 4.384785 82.812950 -9.279857 -3.955672 -111.800874 0.377051 -7.176769 0.452190 0.191488 -3.186292 0.188228 0.191488 -3.186293 0.188229 0.144561 -2.389661 0.142135 4.391392 -24.962432 -4.980866 6.656050 -10.081071 -7.853598 0.518803 -1.509954 1.805551 56.347100 -29.834703 45.915861 -10.769227 -36.824309 -1.475529 -47.175782 24.393312 58.462041 -11.983108 -2.495267 -9.956084 -65.843652 -15.468060 -35.478721 -7.668364 -13.988187 -9.131628 55.812139 1.030460 -51.628584 -0.847860 -8.901661 -0.658524 1.677595 -8.950877 -2.481555 -0.440492 7.643080 3.056747 -0.034365 0.036442 0.024718 -0.157799 -10.629116 -0.057499 0.581470 -6.462541 3.965341 -0.265961 7.319773 -1.799057 -0.034088 -0.099746 -0.018987 
9.910707 4.393755 82.812477 -9.268257 -4.048299 -112.099776 0.396614 -7.162081 0.302050 0.197881 -3.179475 0.124329 0.197880 -3.179475 0.124334 0.149020 -2.384566 0.094255 4.336137 -25.004467 -5.340068 6.472332 -10.156911 -8.511061 0.421195 -1.450770 1.884131 56.370217 -29.553727 45.513116 -10.649146 -36.700888 -1.974402 -47.328129 24.066858 58.095622 -12.055939 -2.433556 -9.823681 -66.199498 -15.993907 -35.532806 -9.091065 -13.103059 -9.893707 55.418355 2.036374 -49.167226 -0.807064 -8.862252 -0.544538 1.635098 -9.000937 -2.333969 -0.406084 7.627246 3.104244 -0.036374 0.034454 0.024247 -0.134725 -10.677410 0.126057 0.567456 -6.497995 4.062846 -0.252475 7.386851 -1.761788 -0.031825 -0.096535 -0.018208 
9.916731 4.403169 82.812782 -9.254044 -4.142572 -112.418452 0.400617 -7.133154 0.174834 0.198197 -3.166793 0.070686 0.198197 -3.166793 0.070687 0.148976 -2.375072 0.054027 4.297619 -25.058579 -5.704088 6.318550 -10.256352 -9.173261 0.343258 -1.475852 1.965547 56.307653 -29.292810 45.172566 -10.582202 -36.490306 -2.400645 -47.483677 23.686785 57.689724 -12.091369 -2.412677 -9.740011 -66.499289 -16.565644 -35.608880 -10.624431 -12.126344 -10.760020 55.018553 3.018128 -46.692802 -0.761871 -8.814571 -0.428707 1.583150 -9.059851 -2.176788 -0.373066 7.612378 3.150243 -0.034606 0.033065 0.023411 -0.109199 -10.728665 0.282834 0.545663 -6.528075 4.191685 -0.237563 7.449869 -1.724141 -0.030885 -0.091542 -0.018763 
